<?xml version="1.0" encoding="utf-8"?>
<!-- Generator: Adobe Illustrator 22.0.1, SVG Export Plug-In . SVG Version: 6.00 Build 0)  -->
<svg version="1.1" xmlns="http://www.w3.org/2000/svg" xmlns:xlink="http://www.w3.org/1999/xlink" x="0px" y="0px"
	 viewBox="0 0 24 24" style="enable-background:new 0 0 24 24;" xml:space="preserve">
<style type="text/css">
	.st0{display:none;}
	.st1{display:inline;fill:none;}
	.st2{display:inline;}
	.st3{fill:none;stroke:#000000;stroke-miterlimit:10;}
</style>
<g id="Ebene_1" class="st0">
	<path class="st1" d="M0,0h24v24H0V0z"/>
	<path class="st2" d="M19.4,10c-0.7-3.4-3.7-6-7.4-6C9.1,4,6.6,5.6,5.3,8C2.3,8.4,0,10.9,0,14c0,3.3,2.7,6,6,6h13c2.8,0,5-2.2,5-5
		C24,12.4,22,10.2,19.4,10z M19,18H6c-2.2,0-4-1.8-4-4s1.8-4,4-4h0.7C7.4,7.7,9.5,6,12,6c3,0,5.5,2.5,5.5,5.5V12H19c1.7,0,3,1.3,3,3
		S20.7,18,19,18z"/>
</g>
<g id="Ebene_2">
	<path class="st3" d="M3,18.5h18.7c0.8-0.7,1.3-1.7,1.3-2.9c0-1.7-1.1-3.1-2.7-3.6c-0.7-3.8-4-6.6-7.9-6.6c-3.2,0-5.9,1.8-7.2,4.5
		C2.8,10.3,1,12.3,1,14.7C1,16.3,1.8,17.7,3,18.5z"/>
</g>
</svg>
