<svg xmlns="http://www.w3.org/2000/svg" viewBox="0 0 48 48">
  <path d="M0 48h48V0L0 48zm39.2-5.2l-1.6-1.6c-2 3.2-4.4 1.9-4.4 1.9-1.5-.7-2.4-.3-2.4-.3-1.4.3-.5-.6-.5-.6 1-.9 2.4-.5 2.4-.5 2.3.6 3.2-1.2 3.5-2-.5-.7-.7-1.4-.7-1.9-2.3 1.9-5.3 3.2-8.9-.4-1-1-1.5-2.2-1.6-3.5-.3-.1-1.6-.8-2.4-2.6 0 0 .5-1 3.6-1.6.5-1 1.2-1.9 2-2.7.8-.8 1.7-1.5 2.7-2 .6-3 1.6-3.5 1.6-3.5 1.8.8 2.4 2.1 2.6 2.4 1.3.1 2.5.5 3.5 1.6 3.6 3.6 2.2 6.6.3 8.9.6 0 1.5.2 2.4 1.1l2.6 2.6-4.7 4.7z" fill-rule="evenodd" clip-rule="evenodd" fill="#fff"/>
</svg>
