<?xml version="1.0" encoding="utf-8"?>
<!-- Generator: Adobe Illustrator 22.0.1, SVG Export Plug-In . SVG Version: 6.00 Build 0)  -->
<svg version="1.1" id="Ebene_1" xmlns="http://www.w3.org/2000/svg" xmlns:xlink="http://www.w3.org/1999/xlink" x="0px" y="0px"
	 viewBox="0 0 600 600" style="enable-background:new 0 0 600 600;" xml:space="preserve">
<style type="text/css">
	.st0{fill:#2D79B9;}
	.st1{fill:none;stroke:#FFFFFF;stroke-width:10;stroke-miterlimit:10;}
	.st2{display:none;}
	.st3{display:inline;fill:#2D79B9;stroke:#FFFFFF;stroke-width:9.6815;stroke-linecap:round;}
	.st4{display:inline;}
	.st5{fill:#2D79B9;stroke:#FFFFFF;stroke-width:9.6815;stroke-linecap:round;}
	.st6{fill:#FFFFFF;}
</style>
<g>
	<rect y="0" class="st0" width="600" height="600"/>
</g>
<path class="st1" d="M418.4,414.3c34,0,61.6-27.6,61.6-61.6c0-27.7-18.4-50.8-43.5-58.6c-11.1-61.6-64.9-108.3-129.7-108.3
	c-52,0-96.8,30.1-118.3,73.8c-38.5,4.7-68.5,37.1-68.5,76.9c0,43,34.9,77.9,77.9,77.9H418.4z"/>
<g class="st2">
	<path id="lufti-face__mouth" class="st3" d="M110,451.6c34.5,46.1,86.4,31.7,155.5-43.2s143.9-48.9,224.5,77.7"/>
	<g id="eyeLeftGroup" class="st4">
		<path id="lufti-face__eye-brow-left" class="st5" d="M127.3,140.7c51.8-35.7,97.9-35.7,138.2,0"/>
		<ellipse class="st6" cx="196.4" cy="252.9" rx="51.8" ry="88.1"/>
		<circle class="st0" cx="196.4" cy="304.8" r="17.3"/>
	</g>
	<g id="eyeRightGroup" class="st4">
		<path id="lufti-face__eye-brow-right" class="st5" d="M300,140.7c51.8,24.2,97.9,24.2,138.2,0"/>
		<g id="lufti-face__eye-roll-left" transform="rotate(41 190 85)">
			
				<ellipse transform="matrix(-0.7547 0.6561 -0.6561 -0.7547 825.7161 -120.2324)" class="st6" cx="435.3" cy="94.2" rx="51.8" ry="51.8"/>
			<circle class="st0" cx="437.4" cy="123.8" r="17.3"/>
		</g>
	</g>
</g>
</svg>
